<svg width="346" height="105" viewBox="0 0 346 105" fill="none" xmlns="http://www.w3.org/2000/svg">
<g filter="url(#filter0_dd_3117_3618)">
<rect x="25.5" y="25" width="295" height="55" rx="10" fill="#2E333A"/>
<path d="M66.7756 52.55C66.7756 50.696 67.1896 49.04 68.0176 47.582C68.8636 46.106 70.0066 44.963 71.4466 44.153C72.9046 43.325 74.5336 42.911 76.3336 42.911C78.4396 42.911 80.2846 43.451 81.8686 44.531C83.4526 45.611 84.5596 47.105 85.1896 49.013H80.8426C80.4106 48.113 79.7986 47.438 79.0066 46.988C78.2326 46.538 77.3326 46.313 76.3066 46.313C75.2086 46.313 74.2276 46.574 73.3636 47.096C72.5176 47.6 71.8516 48.32 71.3656 49.256C70.8976 50.192 70.6636 51.29 70.6636 52.55C70.6636 53.792 70.8976 54.89 71.3656 55.844C71.8516 56.78 72.5176 57.509 73.3636 58.031C74.2276 58.535 75.2086 58.787 76.3066 58.787C77.3326 58.787 78.2326 58.562 79.0066 58.112C79.7986 57.644 80.4106 56.96 80.8426 56.06H85.1896C84.5596 57.986 83.4526 59.489 81.8686 60.569C80.3026 61.631 78.4576 62.162 76.3336 62.162C74.5336 62.162 72.9046 61.757 71.4466 60.947C70.0066 60.119 68.8636 58.976 68.0176 57.518C67.1896 56.06 66.7756 54.404 66.7756 52.55ZM92.1982 49.364C92.6842 48.572 93.3142 47.951 94.0882 47.501C94.8802 47.051 95.7802 46.826 96.7882 46.826V50.795H95.7892C94.6012 50.795 93.7012 51.074 93.0892 51.632C92.4952 52.19 92.1982 53.162 92.1982 54.548V62H88.4182V47.042H92.1982V49.364ZM113.239 54.197C113.239 54.737 113.203 55.223 113.131 55.655H102.196C102.286 56.735 102.664 57.581 103.33 58.193C103.996 58.805 104.815 59.111 105.787 59.111C107.191 59.111 108.19 58.508 108.784 57.302H112.861C112.429 58.742 111.601 59.93 110.377 60.866C109.153 61.784 107.65 62.243 105.868 62.243C104.428 62.243 103.132 61.928 101.98 61.298C100.846 60.65 99.9552 59.741 99.3072 58.571C98.6772 57.401 98.3622 56.051 98.3622 54.521C98.3622 52.973 98.6772 51.614 99.3072 50.444C99.9372 49.274 100.819 48.374 101.953 47.744C103.087 47.114 104.392 46.799 105.868 46.799C107.29 46.799 108.559 47.105 109.675 47.717C110.809 48.329 111.682 49.202 112.294 50.336C112.924 51.452 113.239 52.739 113.239 54.197ZM109.324 53.117C109.306 52.145 108.955 51.371 108.271 50.795C107.587 50.201 106.75 49.904 105.76 49.904C104.824 49.904 104.032 50.192 103.384 50.768C102.754 51.326 102.367 52.109 102.223 53.117H109.324ZM115.026 54.467C115.026 52.955 115.323 51.614 115.917 50.444C116.529 49.274 117.348 48.374 118.374 47.744C119.418 47.114 120.579 46.799 121.857 46.799C122.973 46.799 123.945 47.024 124.773 47.474C125.619 47.924 126.294 48.491 126.798 49.175V47.042H130.605V62H126.798V59.813C126.312 60.515 125.637 61.1 124.773 61.568C123.927 62.018 122.946 62.243 121.83 62.243C120.57 62.243 119.418 61.919 118.374 61.271C117.348 60.623 116.529 59.714 115.917 58.544C115.323 57.356 115.026 55.997 115.026 54.467ZM126.798 54.521C126.798 53.603 126.618 52.82 126.258 52.172C125.898 51.506 125.412 51.002 124.8 50.66C124.188 50.3 123.531 50.12 122.829 50.12C122.127 50.12 121.479 50.291 120.885 50.633C120.291 50.975 119.805 51.479 119.427 52.145C119.067 52.793 118.887 53.567 118.887 54.467C118.887 55.367 119.067 56.159 119.427 56.843C119.805 57.509 120.291 58.022 120.885 58.382C121.497 58.742 122.145 58.922 122.829 58.922C123.531 58.922 124.188 58.751 124.8 58.409C125.412 58.049 125.898 57.545 126.258 56.897C126.618 56.231 126.798 55.439 126.798 54.521ZM138.698 50.147V57.383C138.698 57.887 138.815 58.256 139.049 58.49C139.301 58.706 139.715 58.814 140.291 58.814H142.046V62H139.67C136.484 62 134.891 60.452 134.891 57.356V50.147H133.109V47.042H134.891V43.343H138.698V47.042H142.046V50.147H138.698ZM158.67 54.197C158.67 54.737 158.634 55.223 158.562 55.655H147.627C147.717 56.735 148.095 57.581 148.761 58.193C149.427 58.805 150.246 59.111 151.218 59.111C152.622 59.111 153.621 58.508 154.215 57.302H158.292C157.86 58.742 157.032 59.93 155.808 60.866C154.584 61.784 153.081 62.243 151.299 62.243C149.859 62.243 148.563 61.928 147.411 61.298C146.277 60.65 145.386 59.741 144.738 58.571C144.108 57.401 143.793 56.051 143.793 54.521C143.793 52.973 144.108 51.614 144.738 50.444C145.368 49.274 146.25 48.374 147.384 47.744C148.518 47.114 149.823 46.799 151.299 46.799C152.721 46.799 153.99 47.105 155.106 47.717C156.24 48.329 157.113 49.202 157.725 50.336C158.355 51.452 158.67 52.739 158.67 54.197ZM154.755 53.117C154.737 52.145 154.386 51.371 153.702 50.795C153.018 50.201 152.181 49.904 151.191 49.904C150.255 49.904 149.463 50.192 148.815 50.768C148.185 51.326 147.798 52.109 147.654 53.117H154.755ZM166.891 54.467C166.891 52.955 167.188 51.614 167.782 50.444C168.394 49.274 169.213 48.374 170.239 47.744C171.283 47.114 172.444 46.799 173.722 46.799C174.838 46.799 175.81 47.024 176.638 47.474C177.484 47.924 178.159 48.491 178.663 49.175V47.042H182.47V62H178.663V59.813C178.177 60.515 177.502 61.1 176.638 61.568C175.792 62.018 174.811 62.243 173.695 62.243C172.435 62.243 171.283 61.919 170.239 61.271C169.213 60.623 168.394 59.714 167.782 58.544C167.188 57.356 166.891 55.997 166.891 54.467ZM178.663 54.521C178.663 53.603 178.483 52.82 178.123 52.172C177.763 51.506 177.277 51.002 176.665 50.66C176.053 50.3 175.396 50.12 174.694 50.12C173.992 50.12 173.344 50.291 172.75 50.633C172.156 50.975 171.67 51.479 171.292 52.145C170.932 52.793 170.752 53.567 170.752 54.467C170.752 55.367 170.932 56.159 171.292 56.843C171.67 57.509 172.156 58.022 172.75 58.382C173.362 58.742 174.01 58.922 174.694 58.922C175.396 58.922 176.053 58.751 176.665 58.409C177.277 58.049 177.763 57.545 178.123 56.897C178.483 56.231 178.663 55.439 178.663 54.521ZM185.189 54.521C185.189 52.973 185.504 51.623 186.134 50.471C186.764 49.301 187.637 48.401 188.753 47.771C189.869 47.123 191.147 46.799 192.587 46.799C194.441 46.799 195.971 47.267 197.177 48.203C198.401 49.121 199.22 50.417 199.634 52.091H195.557C195.341 51.443 194.972 50.939 194.45 50.579C193.946 50.201 193.316 50.012 192.56 50.012C191.48 50.012 190.625 50.408 189.995 51.2C189.365 51.974 189.05 53.081 189.05 54.521C189.05 55.943 189.365 57.05 189.995 57.842C190.625 58.616 191.48 59.003 192.56 59.003C194.09 59.003 195.089 58.319 195.557 56.951H199.634C199.22 58.571 198.401 59.858 197.177 60.812C195.953 61.766 194.423 62.243 192.587 62.243C191.147 62.243 189.869 61.928 188.753 61.298C187.637 60.65 186.764 59.75 186.134 58.598C185.504 57.428 185.189 56.069 185.189 54.521ZM201.432 54.521C201.432 52.973 201.747 51.623 202.377 50.471C203.007 49.301 203.88 48.401 204.996 47.771C206.112 47.123 207.39 46.799 208.83 46.799C210.684 46.799 212.214 47.267 213.42 48.203C214.644 49.121 215.463 50.417 215.877 52.091H211.8C211.584 51.443 211.215 50.939 210.693 50.579C210.189 50.201 209.559 50.012 208.803 50.012C207.723 50.012 206.868 50.408 206.238 51.2C205.608 51.974 205.293 53.081 205.293 54.521C205.293 55.943 205.608 57.05 206.238 57.842C206.868 58.616 207.723 59.003 208.803 59.003C210.333 59.003 211.332 58.319 211.8 56.951H215.877C215.463 58.571 214.644 59.858 213.42 60.812C212.196 61.766 210.666 62.243 208.83 62.243C207.39 62.243 206.112 61.928 204.996 61.298C203.88 60.65 203.007 59.75 202.377 58.598C201.747 57.428 201.432 56.069 201.432 54.521ZM225.288 62.243C223.848 62.243 222.552 61.928 221.4 61.298C220.248 60.65 219.339 59.741 218.673 58.571C218.025 57.401 217.701 56.051 217.701 54.521C217.701 52.991 218.034 51.641 218.7 50.471C219.384 49.301 220.311 48.401 221.481 47.771C222.651 47.123 223.956 46.799 225.396 46.799C226.836 46.799 228.141 47.123 229.311 47.771C230.481 48.401 231.399 49.301 232.065 50.471C232.749 51.641 233.091 52.991 233.091 54.521C233.091 56.051 232.74 57.401 232.038 58.571C231.354 59.741 230.418 60.65 229.23 61.298C228.06 61.928 226.746 62.243 225.288 62.243ZM225.288 58.949C225.972 58.949 226.611 58.787 227.205 58.463C227.817 58.121 228.303 57.617 228.663 56.951C229.023 56.285 229.203 55.475 229.203 54.521C229.203 53.099 228.825 52.01 228.069 51.254C227.331 50.48 226.422 50.093 225.342 50.093C224.262 50.093 223.353 50.48 222.615 51.254C221.895 52.01 221.535 53.099 221.535 54.521C221.535 55.943 221.886 57.041 222.588 57.815C223.308 58.571 224.208 58.949 225.288 58.949ZM249.984 47.042V62H246.177V60.11C245.691 60.758 245.052 61.271 244.26 61.649C243.486 62.009 242.64 62.189 241.722 62.189C240.552 62.189 239.517 61.946 238.617 61.46C237.717 60.956 237.006 60.227 236.484 59.273C235.98 58.301 235.728 57.149 235.728 55.817V47.042H239.508V55.277C239.508 56.465 239.805 57.383 240.399 58.031C240.993 58.661 241.803 58.976 242.829 58.976C243.873 58.976 244.692 58.661 245.286 58.031C245.88 57.383 246.177 56.465 246.177 55.277V47.042H249.984ZM262.003 46.826C263.785 46.826 265.225 47.393 266.323 48.527C267.421 49.643 267.97 51.209 267.97 53.225V62H264.19V53.738C264.19 52.55 263.893 51.641 263.299 51.011C262.705 50.363 261.895 50.039 260.869 50.039C259.825 50.039 258.997 50.363 258.385 51.011C257.791 51.641 257.494 52.55 257.494 53.738V62H253.714V47.042H257.494V48.905C257.998 48.257 258.637 47.753 259.411 47.393C260.203 47.015 261.067 46.826 262.003 46.826ZM275.966 50.147V57.383C275.966 57.887 276.083 58.256 276.317 58.49C276.569 58.706 276.983 58.814 277.559 58.814H279.314V62H276.938C273.752 62 272.159 60.452 272.159 57.356V50.147H270.377V47.042H272.159V43.343H275.966V47.042H279.314V50.147H275.966Z" fill="#0ED2F6"/>
<rect x="26" y="25.5" width="294" height="54" rx="9.5" stroke="#0ED2F6"/>
</g>
<defs>
<filter id="filter0_dd_3117_3618" x="0.607913" y="0.107913" width="344.784" height="104.784" filterUnits="userSpaceOnUse" color-interpolation-filters="sRGB">
<feFlood flood-opacity="0" result="BackgroundImageFix"/>
<feColorMatrix in="SourceAlpha" type="matrix" values="0 0 0 0 0 0 0 0 0 0 0 0 0 0 0 0 0 0 127 0" result="hardAlpha"/>
<feOffset dx="6.22302" dy="6.22302"/>
<feGaussianBlur stdDeviation="9.33453"/>
<feColorMatrix type="matrix" values="0 0 0 0 0 0 0 0 0 0 0 0 0 0 0 0 0 0 1 0"/>
<feBlend mode="normal" in2="BackgroundImageFix" result="effect1_dropShadow_3117_3618"/>
<feColorMatrix in="SourceAlpha" type="matrix" values="0 0 0 0 0 0 0 0 0 0 0 0 0 0 0 0 0 0 127 0" result="hardAlpha"/>
<feOffset dx="-6.22302" dy="-6.22302"/>
<feGaussianBlur stdDeviation="9.33453"/>
<feColorMatrix type="matrix" values="0 0 0 0 0.231373 0 0 0 0 0.266667 0 0 0 0 0.317647 0 0 0 1 0"/>
<feBlend mode="normal" in2="effect1_dropShadow_3117_3618" result="effect2_dropShadow_3117_3618"/>
<feBlend mode="normal" in="SourceGraphic" in2="effect2_dropShadow_3117_3618" result="shape"/>
</filter>
</defs>
</svg>
