<svg width="345" height="125" viewBox="0 0 345 125" fill="none" xmlns="http://www.w3.org/2000/svg">
<g filter="url(#filter0_dd_182_3908)">
<rect x="25" y="25" width="295" height="75" rx="12" fill="#2E333A"/>
<path d="M66.2756 62.55C66.2756 60.696 66.6896 59.04 67.5176 57.582C68.3636 56.106 69.5066 54.963 70.9466 54.153C72.4046 53.325 74.0336 52.911 75.8336 52.911C77.9396 52.911 79.7846 53.451 81.3686 54.531C82.9526 55.611 84.0596 57.105 84.6896 59.013H80.3426C79.9106 58.113 79.2986 57.438 78.5066 56.988C77.7326 56.538 76.8326 56.313 75.8066 56.313C74.7086 56.313 73.7276 56.574 72.8636 57.096C72.0176 57.6 71.3516 58.32 70.8656 59.256C70.3976 60.192 70.1636 61.29 70.1636 62.55C70.1636 63.792 70.3976 64.89 70.8656 65.844C71.3516 66.78 72.0176 67.509 72.8636 68.031C73.7276 68.535 74.7086 68.787 75.8066 68.787C76.8326 68.787 77.7326 68.562 78.5066 68.112C79.2986 67.644 79.9106 66.96 80.3426 66.06H84.6896C84.0596 67.986 82.9526 69.489 81.3686 70.569C79.8026 71.631 77.9576 72.162 75.8336 72.162C74.0336 72.162 72.4046 71.757 70.9466 70.947C69.5066 70.119 68.3636 68.976 67.5176 67.518C66.6896 66.06 66.2756 64.404 66.2756 62.55ZM91.6982 59.364C92.1842 58.572 92.8142 57.951 93.5882 57.501C94.3802 57.051 95.2802 56.826 96.2882 56.826V60.795H95.2892C94.1012 60.795 93.2012 61.074 92.5892 61.632C91.9952 62.19 91.6982 63.162 91.6982 64.548V72H87.9182V57.042H91.6982V59.364ZM112.739 64.197C112.739 64.737 112.703 65.223 112.631 65.655H101.696C101.786 66.735 102.164 67.581 102.83 68.193C103.496 68.805 104.315 69.111 105.287 69.111C106.691 69.111 107.69 68.508 108.284 67.302H112.361C111.929 68.742 111.101 69.93 109.877 70.866C108.653 71.784 107.15 72.243 105.368 72.243C103.928 72.243 102.632 71.928 101.48 71.298C100.346 70.65 99.4552 69.741 98.8072 68.571C98.1772 67.401 97.8622 66.051 97.8622 64.521C97.8622 62.973 98.1772 61.614 98.8072 60.444C99.4372 59.274 100.319 58.374 101.453 57.744C102.587 57.114 103.892 56.799 105.368 56.799C106.79 56.799 108.059 57.105 109.175 57.717C110.309 58.329 111.182 59.202 111.794 60.336C112.424 61.452 112.739 62.739 112.739 64.197ZM108.824 63.117C108.806 62.145 108.455 61.371 107.771 60.795C107.087 60.201 106.25 59.904 105.26 59.904C104.324 59.904 103.532 60.192 102.884 60.768C102.254 61.326 101.867 62.109 101.723 63.117H108.824ZM114.526 64.467C114.526 62.955 114.823 61.614 115.417 60.444C116.029 59.274 116.848 58.374 117.874 57.744C118.918 57.114 120.079 56.799 121.357 56.799C122.473 56.799 123.445 57.024 124.273 57.474C125.119 57.924 125.794 58.491 126.298 59.175V57.042H130.105V72H126.298V69.813C125.812 70.515 125.137 71.1 124.273 71.568C123.427 72.018 122.446 72.243 121.33 72.243C120.07 72.243 118.918 71.919 117.874 71.271C116.848 70.623 116.029 69.714 115.417 68.544C114.823 67.356 114.526 65.997 114.526 64.467ZM126.298 64.521C126.298 63.603 126.118 62.82 125.758 62.172C125.398 61.506 124.912 61.002 124.3 60.66C123.688 60.3 123.031 60.12 122.329 60.12C121.627 60.12 120.979 60.291 120.385 60.633C119.791 60.975 119.305 61.479 118.927 62.145C118.567 62.793 118.387 63.567 118.387 64.467C118.387 65.367 118.567 66.159 118.927 66.843C119.305 67.509 119.791 68.022 120.385 68.382C120.997 68.742 121.645 68.922 122.329 68.922C123.031 68.922 123.688 68.751 124.3 68.409C124.912 68.049 125.398 67.545 125.758 66.897C126.118 66.231 126.298 65.439 126.298 64.521ZM138.198 60.147V67.383C138.198 67.887 138.315 68.256 138.549 68.49C138.801 68.706 139.215 68.814 139.791 68.814H141.546V72H139.17C135.984 72 134.391 70.452 134.391 67.356V60.147H132.609V57.042H134.391V53.343H138.198V57.042H141.546V60.147H138.198ZM158.17 64.197C158.17 64.737 158.134 65.223 158.062 65.655H147.127C147.217 66.735 147.595 67.581 148.261 68.193C148.927 68.805 149.746 69.111 150.718 69.111C152.122 69.111 153.121 68.508 153.715 67.302H157.792C157.36 68.742 156.532 69.93 155.308 70.866C154.084 71.784 152.581 72.243 150.799 72.243C149.359 72.243 148.063 71.928 146.911 71.298C145.777 70.65 144.886 69.741 144.238 68.571C143.608 67.401 143.293 66.051 143.293 64.521C143.293 62.973 143.608 61.614 144.238 60.444C144.868 59.274 145.75 58.374 146.884 57.744C148.018 57.114 149.323 56.799 150.799 56.799C152.221 56.799 153.49 57.105 154.606 57.717C155.74 58.329 156.613 59.202 157.225 60.336C157.855 61.452 158.17 62.739 158.17 64.197ZM154.255 63.117C154.237 62.145 153.886 61.371 153.202 60.795C152.518 60.201 151.681 59.904 150.691 59.904C149.755 59.904 148.963 60.192 148.315 60.768C147.685 61.326 147.298 62.109 147.154 63.117H154.255ZM166.391 64.467C166.391 62.955 166.688 61.614 167.282 60.444C167.894 59.274 168.713 58.374 169.739 57.744C170.783 57.114 171.944 56.799 173.222 56.799C174.338 56.799 175.31 57.024 176.138 57.474C176.984 57.924 177.659 58.491 178.163 59.175V57.042H181.97V72H178.163V69.813C177.677 70.515 177.002 71.1 176.138 71.568C175.292 72.018 174.311 72.243 173.195 72.243C171.935 72.243 170.783 71.919 169.739 71.271C168.713 70.623 167.894 69.714 167.282 68.544C166.688 67.356 166.391 65.997 166.391 64.467ZM178.163 64.521C178.163 63.603 177.983 62.82 177.623 62.172C177.263 61.506 176.777 61.002 176.165 60.66C175.553 60.3 174.896 60.12 174.194 60.12C173.492 60.12 172.844 60.291 172.25 60.633C171.656 60.975 171.17 61.479 170.792 62.145C170.432 62.793 170.252 63.567 170.252 64.467C170.252 65.367 170.432 66.159 170.792 66.843C171.17 67.509 171.656 68.022 172.25 68.382C172.862 68.742 173.51 68.922 174.194 68.922C174.896 68.922 175.553 68.751 176.165 68.409C176.777 68.049 177.263 67.545 177.623 66.897C177.983 66.231 178.163 65.439 178.163 64.521ZM184.689 64.521C184.689 62.973 185.004 61.623 185.634 60.471C186.264 59.301 187.137 58.401 188.253 57.771C189.369 57.123 190.647 56.799 192.087 56.799C193.941 56.799 195.471 57.267 196.677 58.203C197.901 59.121 198.72 60.417 199.134 62.091H195.057C194.841 61.443 194.472 60.939 193.95 60.579C193.446 60.201 192.816 60.012 192.06 60.012C190.98 60.012 190.125 60.408 189.495 61.2C188.865 61.974 188.55 63.081 188.55 64.521C188.55 65.943 188.865 67.05 189.495 67.842C190.125 68.616 190.98 69.003 192.06 69.003C193.59 69.003 194.589 68.319 195.057 66.951H199.134C198.72 68.571 197.901 69.858 196.677 70.812C195.453 71.766 193.923 72.243 192.087 72.243C190.647 72.243 189.369 71.928 188.253 71.298C187.137 70.65 186.264 69.75 185.634 68.598C185.004 67.428 184.689 66.069 184.689 64.521ZM200.932 64.521C200.932 62.973 201.247 61.623 201.877 60.471C202.507 59.301 203.38 58.401 204.496 57.771C205.612 57.123 206.89 56.799 208.33 56.799C210.184 56.799 211.714 57.267 212.92 58.203C214.144 59.121 214.963 60.417 215.377 62.091H211.3C211.084 61.443 210.715 60.939 210.193 60.579C209.689 60.201 209.059 60.012 208.303 60.012C207.223 60.012 206.368 60.408 205.738 61.2C205.108 61.974 204.793 63.081 204.793 64.521C204.793 65.943 205.108 67.05 205.738 67.842C206.368 68.616 207.223 69.003 208.303 69.003C209.833 69.003 210.832 68.319 211.3 66.951H215.377C214.963 68.571 214.144 69.858 212.92 70.812C211.696 71.766 210.166 72.243 208.33 72.243C206.89 72.243 205.612 71.928 204.496 71.298C203.38 70.65 202.507 69.75 201.877 68.598C201.247 67.428 200.932 66.069 200.932 64.521ZM224.788 72.243C223.348 72.243 222.052 71.928 220.9 71.298C219.748 70.65 218.839 69.741 218.173 68.571C217.525 67.401 217.201 66.051 217.201 64.521C217.201 62.991 217.534 61.641 218.2 60.471C218.884 59.301 219.811 58.401 220.981 57.771C222.151 57.123 223.456 56.799 224.896 56.799C226.336 56.799 227.641 57.123 228.811 57.771C229.981 58.401 230.899 59.301 231.565 60.471C232.249 61.641 232.591 62.991 232.591 64.521C232.591 66.051 232.24 67.401 231.538 68.571C230.854 69.741 229.918 70.65 228.73 71.298C227.56 71.928 226.246 72.243 224.788 72.243ZM224.788 68.949C225.472 68.949 226.111 68.787 226.705 68.463C227.317 68.121 227.803 67.617 228.163 66.951C228.523 66.285 228.703 65.475 228.703 64.521C228.703 63.099 228.325 62.01 227.569 61.254C226.831 60.48 225.922 60.093 224.842 60.093C223.762 60.093 222.853 60.48 222.115 61.254C221.395 62.01 221.035 63.099 221.035 64.521C221.035 65.943 221.386 67.041 222.088 67.815C222.808 68.571 223.708 68.949 224.788 68.949ZM249.484 57.042V72H245.677V70.11C245.191 70.758 244.552 71.271 243.76 71.649C242.986 72.009 242.14 72.189 241.222 72.189C240.052 72.189 239.017 71.946 238.117 71.46C237.217 70.956 236.506 70.227 235.984 69.273C235.48 68.301 235.228 67.149 235.228 65.817V57.042H239.008V65.277C239.008 66.465 239.305 67.383 239.899 68.031C240.493 68.661 241.303 68.976 242.329 68.976C243.373 68.976 244.192 68.661 244.786 68.031C245.38 67.383 245.677 66.465 245.677 65.277V57.042H249.484ZM261.503 56.826C263.285 56.826 264.725 57.393 265.823 58.527C266.921 59.643 267.47 61.209 267.47 63.225V72H263.69V63.738C263.69 62.55 263.393 61.641 262.799 61.011C262.205 60.363 261.395 60.039 260.369 60.039C259.325 60.039 258.497 60.363 257.885 61.011C257.291 61.641 256.994 62.55 256.994 63.738V72H253.214V57.042H256.994V58.905C257.498 58.257 258.137 57.753 258.911 57.393C259.703 57.015 260.567 56.826 261.503 56.826ZM275.466 60.147V67.383C275.466 67.887 275.583 68.256 275.817 68.49C276.069 68.706 276.483 68.814 277.059 68.814H278.814V72H276.438C273.252 72 271.659 70.452 271.659 67.356V60.147H269.877V57.042H271.659V53.343H275.466V57.042H278.814V60.147H275.466Z" fill="#0ED2F6"/>
<rect x="25.5" y="25.5" width="294" height="74" rx="11.5" stroke="#0ED2F6"/>
</g>
<defs>
<filter id="filter0_dd_182_3908" x="0.107913" y="0.107913" width="344.784" height="124.784" filterUnits="userSpaceOnUse" color-interpolation-filters="sRGB">
<feFlood flood-opacity="0" result="BackgroundImageFix"/>
<feColorMatrix in="SourceAlpha" type="matrix" values="0 0 0 0 0 0 0 0 0 0 0 0 0 0 0 0 0 0 127 0" result="hardAlpha"/>
<feOffset dx="6.22302" dy="6.22302"/>
<feGaussianBlur stdDeviation="9.33453"/>
<feColorMatrix type="matrix" values="0 0 0 0 0 0 0 0 0 0 0 0 0 0 0 0 0 0 1 0"/>
<feBlend mode="normal" in2="BackgroundImageFix" result="effect1_dropShadow_182_3908"/>
<feColorMatrix in="SourceAlpha" type="matrix" values="0 0 0 0 0 0 0 0 0 0 0 0 0 0 0 0 0 0 127 0" result="hardAlpha"/>
<feOffset dx="-6.22302" dy="-6.22302"/>
<feGaussianBlur stdDeviation="9.33453"/>
<feColorMatrix type="matrix" values="0 0 0 0 0.231373 0 0 0 0 0.266667 0 0 0 0 0.317647 0 0 0 1 0"/>
<feBlend mode="normal" in2="effect1_dropShadow_182_3908" result="effect2_dropShadow_182_3908"/>
<feBlend mode="normal" in="SourceGraphic" in2="effect2_dropShadow_182_3908" result="shape"/>
</filter>
</defs>
</svg>
