<svg width="25" height="25" viewBox="0 0 25 25" fill="none" xmlns="http://www.w3.org/2000/svg">
<path d="M12.5009 15.5C14.1578 15.5 15.5009 14.1569 15.5009 12.5C15.5009 10.8431 14.1578 9.5 12.5009 9.5C10.8441 9.5 9.50092 10.8431 9.50092 12.5C9.50092 14.1569 10.8441 15.5 12.5009 15.5Z" fill="#72E4F9"/>
<path d="M23.509 11.6844C22.2687 9.76625 20.6595 8.13688 18.8557 6.97203C16.8602 5.68203 14.6571 5 12.4849 5C10.4918 5 8.53197 5.56953 6.65978 6.69266C4.75056 7.83781 3.02087 9.51078 1.51853 11.6647C1.34893 11.9081 1.25552 12.1965 1.25018 12.4931C1.24484 12.7897 1.3278 13.0813 1.48853 13.3306C2.7265 15.268 4.31978 16.8997 6.0954 18.0486C8.09462 19.3438 10.2462 20 12.4849 20C14.6745 20 16.8823 19.3236 18.8693 18.0444C20.6721 16.8833 22.2781 15.2478 23.5137 13.3137C23.6689 13.0702 23.7509 12.7872 23.7501 12.4984C23.7493 12.2096 23.6656 11.9271 23.509 11.6844ZM12.5009 17C11.6109 17 10.7408 16.7361 10.0008 16.2416C9.26079 15.7471 8.68401 15.0443 8.34342 14.2221C8.00282 13.3998 7.91371 12.495 8.08734 11.6221C8.26097 10.7492 8.68956 9.94736 9.31889 9.31802C9.94823 8.68868 10.7501 8.2601 11.623 8.08647C12.4959 7.91283 13.4007 8.00195 14.2229 8.34254C15.0452 8.68314 15.748 9.25991 16.2425 9.99993C16.737 10.74 17.0009 11.61 17.0009 12.5C16.9995 13.6931 16.525 14.8369 15.6813 15.6805C14.8377 16.5241 13.6939 16.9986 12.5009 17Z" fill="#72E4F9"/>
</svg>
