<svg width="126" height="126" viewBox="0 0 126 126" fill="none" xmlns="http://www.w3.org/2000/svg">
<g filter="url(#filter0_dd_182_8166)">
<rect x="25" y="25" width="76" height="76" rx="12" fill="#2E333A"/>
<mask id="path-2-inside-1_182_8166" fill="white">
<path d="M58.4657 48L57.4067 48.1275C57.4067 48.1275 52.6555 48.6468 49.1857 51.4332H49.145L49.1016 51.4739C48.3233 52.1898 47.9843 53.0698 47.4487 54.3566C46.8174 55.9048 46.2799 57.4896 45.8392 59.1024C44.8331 62.7403 44.0168 67.1471 44.0168 71.1783V71.5173L44.1863 71.8563C45.4419 74.0597 47.6711 75.463 49.7375 76.4325C51.8026 77.402 53.5884 77.9159 54.8223 77.958L55.6277 78L56.0507 77.28L57.5341 74.6522C59.107 75.0075 60.9185 75.2461 62.9999 75.2461C65.0812 75.2461 66.8928 75.0075 68.4657 74.6522L69.949 77.28L70.3734 78L71.1775 77.958C72.4114 77.9159 74.1972 77.402 76.2623 76.4325C78.3287 75.463 80.5579 74.0597 81.8134 71.8563L81.9829 71.5173V71.1783C81.9829 67.1471 81.1667 62.7403 80.1606 59.1024C79.7199 57.4896 79.1824 55.9048 78.5511 54.3566C78.0155 53.0685 77.6765 52.1898 76.8982 51.4753L76.8562 51.4319H76.8128C73.3457 48.6468 68.5931 48.1275 68.5931 48.1275L67.5341 48L67.1518 48.9749C67.1518 48.9749 66.7599 49.9647 66.5172 51.0942C65.3515 50.9334 64.1766 50.8483 62.9999 50.8393C62.2745 50.8393 61.0202 50.8868 59.4826 51.0942C59.2385 49.9647 58.8467 48.9749 58.8467 48.9749L58.4657 48ZM56.6012 51.0942C56.6596 51.2841 56.7179 51.4481 56.7707 51.6027C55.0175 52.0366 53.1477 52.6983 51.4324 53.7627L52.8724 56.0515C56.3897 53.8685 61.4419 53.5512 62.9999 53.5512C64.5565 53.5512 69.6101 53.8685 73.1273 56.0515L74.5673 53.7627C72.8521 52.6983 70.9823 52.0366 69.229 51.6014C69.2819 51.4481 69.3402 51.2841 69.3985 51.0929C70.6636 51.3478 73.0799 51.9308 75.0758 53.5092C75.065 53.5146 75.5843 54.2983 76.0507 55.4156C76.528 56.5654 77.0568 58.0963 77.5341 59.8224C78.4507 63.1322 79.1707 67.1634 79.229 70.7119C78.3748 72.0149 76.7924 73.1905 75.1179 73.9756C74.0677 74.4719 72.9566 74.8275 71.8134 75.0332L71.1355 73.8902C71.5382 73.741 71.9355 73.5783 72.2799 73.4237C74.3667 72.5071 75.5002 71.5173 75.5002 71.5173L73.7199 69.4834C73.7199 69.4834 72.9579 70.1831 71.1775 70.9668C69.3999 71.7505 66.6812 72.5342 62.9999 72.5342C59.3185 72.5342 56.6012 71.7505 54.8223 70.9668C53.0419 70.1831 52.2799 69.4834 52.2799 69.4834L50.4996 71.5173C50.4996 71.5173 51.6331 72.5071 53.7199 73.4237C54.0643 73.5783 54.4616 73.7424 54.8643 73.8902L54.1863 75.0346C53.0426 74.8281 51.9311 74.4715 50.8806 73.9742C49.2074 73.1905 47.6236 72.0149 46.7721 70.7119C46.829 67.1634 47.549 63.1322 48.467 59.8224C48.8726 58.3252 49.3675 56.8536 49.949 55.4156C50.4155 54.2983 50.9348 53.5146 50.924 53.5092C52.9199 51.9308 55.3362 51.3478 56.6012 51.0942ZM58.2541 60.3308C57.206 60.3308 56.2785 60.9288 55.7118 61.6868C55.145 62.4447 54.8643 63.3763 54.8643 64.3986C54.8643 65.421 55.145 66.3525 55.7118 67.1105C56.2785 67.8685 57.206 68.4664 58.2541 68.4664C59.3023 68.4664 60.2297 67.8685 60.7965 67.1105C61.3633 66.3525 61.644 65.421 61.644 64.3986C61.644 63.3763 61.3633 62.4447 60.7965 61.6868C60.2297 60.9288 59.3023 60.3308 58.2541 60.3308ZM67.7457 60.3308C66.6975 60.3308 65.7701 60.9288 65.2033 61.6868C64.6365 62.4447 64.3558 63.3763 64.3558 64.3986C64.3558 65.421 64.6365 66.3525 65.2033 67.1105C65.7701 67.8685 66.6975 68.4664 67.7457 68.4664C68.7938 68.4664 69.7212 67.8685 70.288 67.1105C70.8548 66.3525 71.1355 65.421 71.1355 64.3986C71.1355 63.3763 70.8548 62.4447 70.288 61.6868C69.7212 60.9288 68.7938 60.3308 67.7457 60.3308ZM58.2541 63.0427C58.3287 63.0427 58.4236 63.0698 58.5931 63.2976C58.7626 63.5241 58.9321 63.9214 58.9321 64.3986C58.9321 64.8759 58.7626 65.2732 58.5931 65.501C58.4236 65.7275 58.3287 65.7546 58.2541 65.7546C58.1796 65.7546 58.0846 65.7275 57.9151 65.4997C57.6909 65.1766 57.5725 64.7919 57.5762 64.3986C57.5762 63.9214 57.7457 63.5241 57.9151 63.2963C58.0846 63.0698 58.1796 63.0427 58.2541 63.0427ZM67.7457 63.0427C67.8202 63.0427 67.9151 63.0698 68.0846 63.2976C68.2541 63.5241 68.4236 63.9214 68.4236 64.3986C68.4236 64.8759 68.2541 65.2732 68.0846 65.501C67.9151 65.7275 67.8202 65.7546 67.7457 65.7546C67.6711 65.7546 67.5762 65.7275 67.4067 65.4997C67.1824 65.1766 67.064 64.7919 67.0677 64.3986C67.0677 63.9214 67.2372 63.5241 67.4067 63.2963C67.5762 63.0698 67.6711 63.0427 67.7457 63.0427Z"/>
</mask>
<path d="M58.4657 48L57.4067 48.1275C57.4067 48.1275 52.6555 48.6468 49.1857 51.4332H49.145L49.1016 51.4739C48.3233 52.1898 47.9843 53.0698 47.4487 54.3566C46.8174 55.9048 46.2799 57.4896 45.8392 59.1024C44.8331 62.7403 44.0168 67.1471 44.0168 71.1783V71.5173L44.1863 71.8563C45.4419 74.0597 47.6711 75.463 49.7375 76.4325C51.8026 77.402 53.5884 77.9159 54.8223 77.958L55.6277 78L56.0507 77.28L57.5341 74.6522C59.107 75.0075 60.9185 75.2461 62.9999 75.2461C65.0812 75.2461 66.8928 75.0075 68.4657 74.6522L69.949 77.28L70.3734 78L71.1775 77.958C72.4114 77.9159 74.1972 77.402 76.2623 76.4325C78.3287 75.463 80.5579 74.0597 81.8134 71.8563L81.9829 71.5173V71.1783C81.9829 67.1471 81.1667 62.7403 80.1606 59.1024C79.7199 57.4896 79.1824 55.9048 78.5511 54.3566C78.0155 53.0685 77.6765 52.1898 76.8982 51.4753L76.8562 51.4319H76.8128C73.3457 48.6468 68.5931 48.1275 68.5931 48.1275L67.5341 48L67.1518 48.9749C67.1518 48.9749 66.7599 49.9647 66.5172 51.0942C65.3515 50.9334 64.1766 50.8483 62.9999 50.8393C62.2745 50.8393 61.0202 50.8868 59.4826 51.0942C59.2385 49.9647 58.8467 48.9749 58.8467 48.9749L58.4657 48ZM56.6012 51.0942C56.6596 51.2841 56.7179 51.4481 56.7707 51.6027C55.0175 52.0366 53.1477 52.6983 51.4324 53.7627L52.8724 56.0515C56.3897 53.8685 61.4419 53.5512 62.9999 53.5512C64.5565 53.5512 69.6101 53.8685 73.1273 56.0515L74.5673 53.7627C72.8521 52.6983 70.9823 52.0366 69.229 51.6014C69.2819 51.4481 69.3402 51.2841 69.3985 51.0929C70.6636 51.3478 73.0799 51.9308 75.0758 53.5092C75.065 53.5146 75.5843 54.2983 76.0507 55.4156C76.528 56.5654 77.0568 58.0963 77.5341 59.8224C78.4507 63.1322 79.1707 67.1634 79.229 70.7119C78.3748 72.0149 76.7924 73.1905 75.1179 73.9756C74.0677 74.4719 72.9566 74.8275 71.8134 75.0332L71.1355 73.8902C71.5382 73.741 71.9355 73.5783 72.2799 73.4237C74.3667 72.5071 75.5002 71.5173 75.5002 71.5173L73.7199 69.4834C73.7199 69.4834 72.9579 70.1831 71.1775 70.9668C69.3999 71.7505 66.6812 72.5342 62.9999 72.5342C59.3185 72.5342 56.6012 71.7505 54.8223 70.9668C53.0419 70.1831 52.2799 69.4834 52.2799 69.4834L50.4996 71.5173C50.4996 71.5173 51.6331 72.5071 53.7199 73.4237C54.0643 73.5783 54.4616 73.7424 54.8643 73.8902L54.1863 75.0346C53.0426 74.8281 51.9311 74.4715 50.8806 73.9742C49.2074 73.1905 47.6236 72.0149 46.7721 70.7119C46.829 67.1634 47.549 63.1322 48.467 59.8224C48.8726 58.3252 49.3675 56.8536 49.949 55.4156C50.4155 54.2983 50.9348 53.5146 50.924 53.5092C52.9199 51.9308 55.3362 51.3478 56.6012 51.0942ZM58.2541 60.3308C57.206 60.3308 56.2785 60.9288 55.7118 61.6868C55.145 62.4447 54.8643 63.3763 54.8643 64.3986C54.8643 65.421 55.145 66.3525 55.7118 67.1105C56.2785 67.8685 57.206 68.4664 58.2541 68.4664C59.3023 68.4664 60.2297 67.8685 60.7965 67.1105C61.3633 66.3525 61.644 65.421 61.644 64.3986C61.644 63.3763 61.3633 62.4447 60.7965 61.6868C60.2297 60.9288 59.3023 60.3308 58.2541 60.3308ZM67.7457 60.3308C66.6975 60.3308 65.7701 60.9288 65.2033 61.6868C64.6365 62.4447 64.3558 63.3763 64.3558 64.3986C64.3558 65.421 64.6365 66.3525 65.2033 67.1105C65.7701 67.8685 66.6975 68.4664 67.7457 68.4664C68.7938 68.4664 69.7212 67.8685 70.288 67.1105C70.8548 66.3525 71.1355 65.421 71.1355 64.3986C71.1355 63.3763 70.8548 62.4447 70.288 61.6868C69.7212 60.9288 68.7938 60.3308 67.7457 60.3308ZM58.2541 63.0427C58.3287 63.0427 58.4236 63.0698 58.5931 63.2976C58.7626 63.5241 58.9321 63.9214 58.9321 64.3986C58.9321 64.8759 58.7626 65.2732 58.5931 65.501C58.4236 65.7275 58.3287 65.7546 58.2541 65.7546C58.1796 65.7546 58.0846 65.7275 57.9151 65.4997C57.6909 65.1766 57.5725 64.7919 57.5762 64.3986C57.5762 63.9214 57.7457 63.5241 57.9151 63.2963C58.0846 63.0698 58.1796 63.0427 58.2541 63.0427ZM67.7457 63.0427C67.8202 63.0427 67.9151 63.0698 68.0846 63.2976C68.2541 63.5241 68.4236 63.9214 68.4236 64.3986C68.4236 64.8759 68.2541 65.2732 68.0846 65.501C67.9151 65.7275 67.8202 65.7546 67.7457 65.7546C67.6711 65.7546 67.5762 65.7275 67.4067 65.4997C67.1824 65.1766 67.064 64.7919 67.0677 64.3986C67.0677 63.9214 67.2372 63.5241 67.4067 63.2963C67.5762 63.0698 67.6711 63.0427 67.7457 63.0427Z" fill="#B2C2CB" stroke="#2E333A" stroke-width="0.8" mask="url(#path-2-inside-1_182_8166)"/>
</g>
<defs>
<filter id="filter0_dd_182_8166" x="0.107913" y="0.107913" width="125.784" height="125.784" filterUnits="userSpaceOnUse" color-interpolation-filters="sRGB">
<feFlood flood-opacity="0" result="BackgroundImageFix"/>
<feColorMatrix in="SourceAlpha" type="matrix" values="0 0 0 0 0 0 0 0 0 0 0 0 0 0 0 0 0 0 127 0" result="hardAlpha"/>
<feOffset dx="6.22302" dy="6.22302"/>
<feGaussianBlur stdDeviation="9.33453"/>
<feColorMatrix type="matrix" values="0 0 0 0 0 0 0 0 0 0 0 0 0 0 0 0 0 0 1 0"/>
<feBlend mode="normal" in2="BackgroundImageFix" result="effect1_dropShadow_182_8166"/>
<feColorMatrix in="SourceAlpha" type="matrix" values="0 0 0 0 0 0 0 0 0 0 0 0 0 0 0 0 0 0 127 0" result="hardAlpha"/>
<feOffset dx="-6.22302" dy="-6.22302"/>
<feGaussianBlur stdDeviation="9.33453"/>
<feColorMatrix type="matrix" values="0 0 0 0 0.231373 0 0 0 0 0.266667 0 0 0 0 0.317647 0 0 0 1 0"/>
<feBlend mode="normal" in2="effect1_dropShadow_182_8166" result="effect2_dropShadow_182_8166"/>
<feBlend mode="normal" in="SourceGraphic" in2="effect2_dropShadow_182_8166" result="shape"/>
</filter>
</defs>
</svg>
