<svg width="222" height="105" viewBox="0 0 222 105" fill="none" xmlns="http://www.w3.org/2000/svg">
<g filter="url(#filter0_dd_182_8429)">
<rect x="25" y="25" width="172" height="55" rx="12" fill="#2E333A"/>
<path d="M73.412 62.189C72.098 62.189 70.91 61.964 69.848 61.514C68.804 61.064 67.976 60.416 67.364 59.57C66.752 58.724 66.437 57.725 66.419 56.573H70.469C70.523 57.347 70.793 57.959 71.279 58.409C71.783 58.859 72.467 59.084 73.331 59.084C74.213 59.084 74.906 58.877 75.41 58.463C75.914 58.031 76.166 57.473 76.166 56.789C76.166 56.231 75.995 55.772 75.653 55.412C75.311 55.052 74.879 54.773 74.357 54.575C73.853 54.359 73.151 54.125 72.251 53.873C71.027 53.513 70.028 53.162 69.254 52.82C68.498 52.46 67.841 51.929 67.283 51.227C66.743 50.507 66.473 49.553 66.473 48.365C66.473 47.249 66.752 46.277 67.31 45.449C67.868 44.621 68.651 43.991 69.659 43.559C70.667 43.109 71.819 42.884 73.115 42.884C75.059 42.884 76.634 43.361 77.84 44.315C79.064 45.251 79.739 46.565 79.865 48.257H75.707C75.671 47.609 75.392 47.078 74.87 46.664C74.366 46.232 73.691 46.016 72.845 46.016C72.107 46.016 71.513 46.205 71.063 46.583C70.631 46.961 70.415 47.51 70.415 48.23C70.415 48.734 70.577 49.157 70.901 49.499C71.243 49.823 71.657 50.093 72.143 50.309C72.647 50.507 73.349 50.741 74.249 51.011C75.473 51.371 76.472 51.731 77.246 52.091C78.02 52.451 78.686 52.991 79.244 53.711C79.802 54.431 80.081 55.376 80.081 56.546C80.081 57.554 79.82 58.49 79.298 59.354C78.776 60.218 78.011 60.911 77.003 61.433C75.995 61.937 74.798 62.189 73.412 62.189ZM85.2751 45.26C84.6091 45.26 84.0511 45.053 83.6011 44.639C83.1691 44.207 82.9531 43.676 82.9531 43.046C82.9531 42.416 83.1691 41.894 83.6011 41.48C84.0511 41.048 84.6091 40.832 85.2751 40.832C85.9411 40.832 86.4901 41.048 86.9221 41.48C87.3721 41.894 87.5971 42.416 87.5971 43.046C87.5971 43.676 87.3721 44.207 86.9221 44.639C86.4901 45.053 85.9411 45.26 85.2751 45.26ZM87.1381 47.042V62H83.3581V47.042H87.1381ZM96.7318 46.799C97.8478 46.799 98.8288 47.024 99.6748 47.474C100.521 47.906 101.187 48.473 101.673 49.175V47.042H105.48V62.108C105.48 63.494 105.201 64.727 104.643 65.807C104.085 66.905 103.248 67.769 102.132 68.399C101.016 69.047 99.6658 69.371 98.0818 69.371C95.9578 69.371 94.2118 68.876 92.8438 67.886C91.4938 66.896 90.7288 65.546 90.5488 63.836H94.3018C94.4998 64.52 94.9228 65.06 95.5708 65.456C96.2368 65.87 97.0378 66.077 97.9738 66.077C99.0718 66.077 99.9628 65.744 100.647 65.078C101.331 64.43 101.673 63.44 101.673 62.108V59.786C101.187 60.488 100.512 61.073 99.6478 61.541C98.8018 62.009 97.8298 62.243 96.7318 62.243C95.4718 62.243 94.3198 61.919 93.2758 61.271C92.2318 60.623 91.4038 59.714 90.7918 58.544C90.1978 57.356 89.9008 55.997 89.9008 54.467C89.9008 52.955 90.1978 51.614 90.7918 50.444C91.4038 49.274 92.2228 48.374 93.2488 47.744C94.2928 47.114 95.4538 46.799 96.7318 46.799ZM101.673 54.521C101.673 53.603 101.493 52.82 101.133 52.172C100.773 51.506 100.287 51.002 99.6748 50.66C99.0628 50.3 98.4058 50.12 97.7038 50.12C97.0018 50.12 96.3538 50.291 95.7598 50.633C95.1658 50.975 94.6798 51.479 94.3018 52.145C93.9418 52.793 93.7618 53.567 93.7618 54.467C93.7618 55.367 93.9418 56.159 94.3018 56.843C94.6798 57.509 95.1658 58.022 95.7598 58.382C96.3718 58.742 97.0198 58.922 97.7038 58.922C98.4058 58.922 99.0628 58.751 99.6748 58.409C100.287 58.049 100.773 57.545 101.133 56.897C101.493 56.231 101.673 55.439 101.673 54.521ZM117.461 46.826C119.243 46.826 120.683 47.393 121.781 48.527C122.879 49.643 123.428 51.209 123.428 53.225V62H119.648V53.738C119.648 52.55 119.351 51.641 118.757 51.011C118.163 50.363 117.353 50.039 116.327 50.039C115.283 50.039 114.455 50.363 113.843 51.011C113.249 51.641 112.952 52.55 112.952 53.738V62H109.172V47.042H112.952V48.905C113.456 48.257 114.095 47.753 114.869 47.393C115.661 47.015 116.525 46.826 117.461 46.826ZM137.236 43.154V62H133.456V43.154H137.236ZM149.259 46.826C151.041 46.826 152.481 47.393 153.579 48.527C154.677 49.643 155.226 51.209 155.226 53.225V62H151.446V53.738C151.446 52.55 151.149 51.641 150.555 51.011C149.961 50.363 149.151 50.039 148.125 50.039C147.081 50.039 146.253 50.363 145.641 51.011C145.047 51.641 144.75 52.55 144.75 53.738V62H140.97V47.042H144.75V48.905C145.254 48.257 145.893 47.753 146.667 47.393C147.459 47.015 148.323 46.826 149.259 46.826Z" fill="#0ED2F6"/>
<rect x="25.5" y="25.5" width="171" height="54" rx="11.5" stroke="#0ED2F6"/>
</g>
<defs>
<filter id="filter0_dd_182_8429" x="0.107913" y="0.107913" width="221.784" height="104.784" filterUnits="userSpaceOnUse" color-interpolation-filters="sRGB">
<feFlood flood-opacity="0" result="BackgroundImageFix"/>
<feColorMatrix in="SourceAlpha" type="matrix" values="0 0 0 0 0 0 0 0 0 0 0 0 0 0 0 0 0 0 127 0" result="hardAlpha"/>
<feOffset dx="6.22302" dy="6.22302"/>
<feGaussianBlur stdDeviation="9.33453"/>
<feColorMatrix type="matrix" values="0 0 0 0 0 0 0 0 0 0 0 0 0 0 0 0 0 0 1 0"/>
<feBlend mode="normal" in2="BackgroundImageFix" result="effect1_dropShadow_182_8429"/>
<feColorMatrix in="SourceAlpha" type="matrix" values="0 0 0 0 0 0 0 0 0 0 0 0 0 0 0 0 0 0 127 0" result="hardAlpha"/>
<feOffset dx="-6.22302" dy="-6.22302"/>
<feGaussianBlur stdDeviation="9.33453"/>
<feColorMatrix type="matrix" values="0 0 0 0 0.231373 0 0 0 0 0.266667 0 0 0 0 0.317647 0 0 0 1 0"/>
<feBlend mode="normal" in2="effect1_dropShadow_182_8429" result="effect2_dropShadow_182_8429"/>
<feBlend mode="normal" in="SourceGraphic" in2="effect2_dropShadow_182_8429" result="shape"/>
</filter>
</defs>
</svg>
