<svg width="90" height="29" viewBox="0 0 90 29" fill="none" xmlns="http://www.w3.org/2000/svg">
<path d="M7.41199 21.689C6.09799 21.689 4.90999 21.464 3.84799 21.014C2.80399 20.564 1.97599 19.916 1.36399 19.07C0.751992 18.224 0.436992 17.225 0.418992 16.073H4.46899C4.52299 16.847 4.79299 17.459 5.27899 17.909C5.78299 18.359 6.46699 18.584 7.33099 18.584C8.21299 18.584 8.90599 18.377 9.40999 17.963C9.91399 17.531 10.166 16.973 10.166 16.289C10.166 15.731 9.99499 15.272 9.65299 14.912C9.31099 14.552 8.87899 14.273 8.35699 14.075C7.85299 13.859 7.15099 13.625 6.25099 13.373C5.02699 13.013 4.02799 12.662 3.25399 12.32C2.49799 11.96 1.84099 11.429 1.28299 10.727C0.742992 10.007 0.472992 9.053 0.472992 7.865C0.472992 6.749 0.751992 5.777 1.30999 4.949C1.86799 4.121 2.65099 3.491 3.65899 3.059C4.66699 2.609 5.81899 2.384 7.11499 2.384C9.05899 2.384 10.634 2.861 11.84 3.815C13.064 4.751 13.739 6.065 13.865 7.757H9.70699C9.67099 7.109 9.39199 6.578 8.86999 6.164C8.36599 5.732 7.69099 5.516 6.84499 5.516C6.10699 5.516 5.51299 5.705 5.06299 6.083C4.63099 6.461 4.41499 7.01 4.41499 7.73C4.41499 8.234 4.57699 8.657 4.90099 8.999C5.24299 9.323 5.65699 9.593 6.14299 9.809C6.64699 10.007 7.34899 10.241 8.24899 10.511C9.47299 10.871 10.472 11.231 11.246 11.591C12.02 11.951 12.686 12.491 13.244 13.211C13.802 13.931 14.081 14.876 14.081 16.046C14.081 17.054 13.82 17.99 13.298 18.854C12.776 19.718 12.011 20.411 11.003 20.933C9.99499 21.437 8.79799 21.689 7.41199 21.689ZM19.2751 4.76C18.6091 4.76 18.0511 4.553 17.6011 4.139C17.1691 3.707 16.9531 3.176 16.9531 2.546C16.9531 1.916 17.1691 1.394 17.6011 0.979999C18.0511 0.547999 18.6091 0.331999 19.2751 0.331999C19.9411 0.331999 20.4901 0.547999 20.9221 0.979999C21.3721 1.394 21.5971 1.916 21.5971 2.546C21.5971 3.176 21.3721 3.707 20.9221 4.139C20.4901 4.553 19.9411 4.76 19.2751 4.76ZM21.1381 6.542V21.5H17.3581V6.542H21.1381ZM30.7318 6.299C31.8478 6.299 32.8288 6.524 33.6748 6.974C34.5208 7.406 35.1868 7.973 35.6728 8.675V6.542H39.4798V21.608C39.4798 22.994 39.2008 24.227 38.6428 25.307C38.0848 26.405 37.2478 27.269 36.1318 27.899C35.0158 28.547 33.6658 28.871 32.0818 28.871C29.9578 28.871 28.2118 28.376 26.8438 27.386C25.4938 26.396 24.7288 25.046 24.5488 23.336H28.3018C28.4998 24.02 28.9228 24.56 29.5708 24.956C30.2368 25.37 31.0378 25.577 31.9738 25.577C33.0718 25.577 33.9628 25.244 34.6468 24.578C35.3308 23.93 35.6728 22.94 35.6728 21.608V19.286C35.1868 19.988 34.5118 20.573 33.6478 21.041C32.8018 21.509 31.8298 21.743 30.7318 21.743C29.4718 21.743 28.3198 21.419 27.2758 20.771C26.2318 20.123 25.4038 19.214 24.7918 18.044C24.1978 16.856 23.9008 15.497 23.9008 13.967C23.9008 12.455 24.1978 11.114 24.7918 9.944C25.4038 8.774 26.2228 7.874 27.2488 7.244C28.2928 6.614 29.4538 6.299 30.7318 6.299ZM35.6728 14.021C35.6728 13.103 35.4928 12.32 35.1328 11.672C34.7728 11.006 34.2868 10.502 33.6748 10.16C33.0628 9.8 32.4058 9.62 31.7038 9.62C31.0018 9.62 30.3538 9.791 29.7598 10.133C29.1658 10.475 28.6798 10.979 28.3018 11.645C27.9418 12.293 27.7618 13.067 27.7618 13.967C27.7618 14.867 27.9418 15.659 28.3018 16.343C28.6798 17.009 29.1658 17.522 29.7598 17.882C30.3718 18.242 31.0198 18.422 31.7038 18.422C32.4058 18.422 33.0628 18.251 33.6748 17.909C34.2868 17.549 34.7728 17.045 35.1328 16.397C35.4928 15.731 35.6728 14.939 35.6728 14.021ZM51.4606 6.326C53.2426 6.326 54.6826 6.893 55.7806 8.027C56.8786 9.143 57.4276 10.709 57.4276 12.725V21.5H53.6476V13.238C53.6476 12.05 53.3506 11.141 52.7566 10.511C52.1626 9.863 51.3526 9.539 50.3266 9.539C49.2826 9.539 48.4546 9.863 47.8426 10.511C47.2486 11.141 46.9516 12.05 46.9516 13.238V21.5H43.1716V6.542H46.9516V8.405C47.4556 7.757 48.0946 7.253 48.8686 6.893C49.6606 6.515 50.5246 6.326 51.4606 6.326ZM71.2358 2.654V21.5H67.4558V2.654H71.2358ZM83.2594 6.326C85.0414 6.326 86.4814 6.893 87.5794 8.027C88.6774 9.143 89.2264 10.709 89.2264 12.725V21.5H85.4464V13.238C85.4464 12.05 85.1494 11.141 84.5554 10.511C83.9614 9.863 83.1514 9.539 82.1254 9.539C81.0814 9.539 80.2534 9.863 79.6414 10.511C79.0474 11.141 78.7504 12.05 78.7504 13.238V21.5H74.9704V6.542H78.7504V8.405C79.2544 7.757 79.8934 7.253 80.6674 6.893C81.4594 6.515 82.3234 6.326 83.2594 6.326Z" fill="#B2C2CB"/>
</svg>
