<svg width="126" height="126" viewBox="0 0 126 126" fill="none" xmlns="http://www.w3.org/2000/svg">
<g filter="url(#filter0_dd_177_3849)">
<rect x="25" y="25" width="76" height="76" rx="12" fill="#2E333A"/>
<mask id="path-2-inside-1_177_3849" fill="white">
<path d="M58.4658 48L57.4068 48.1275C57.4068 48.1275 52.6556 48.6468 49.1858 51.4332H49.1451L49.1017 51.4739C48.3234 52.1898 47.9844 53.0698 47.4488 54.3566C46.8175 55.9048 46.28 57.4896 45.8393 59.1024C44.8332 62.7403 44.017 67.1471 44.017 71.1783V71.5173L44.1865 71.8563C45.4421 74.0597 47.6712 75.463 49.7376 76.4325C51.8027 77.402 53.5885 77.9159 54.8224 77.958L55.6278 78L56.0509 77.28L57.5343 74.6522C59.1071 75.0075 60.9187 75.2461 63 75.2461C65.0814 75.2461 66.8929 75.0075 68.4658 74.6522L69.9492 77.28L70.3736 78L71.1776 77.958C72.4115 77.9159 74.1973 77.402 76.2624 76.4325C78.3288 75.463 80.558 74.0597 81.8136 71.8563L81.9831 71.5173V71.1783C81.9831 67.1471 81.1668 62.7403 80.1607 59.1024C79.72 57.4896 79.1825 55.9048 78.5512 54.3566C78.0156 53.0685 77.6766 52.1898 76.8983 51.4753L76.8563 51.4319H76.8129C73.3458 48.6468 68.5932 48.1275 68.5932 48.1275L67.5343 48L67.1519 48.9749C67.1519 48.9749 66.76 49.9647 66.5173 51.0942C65.3516 50.9334 64.1767 50.8483 63 50.8393C62.2746 50.8393 61.0204 50.8868 59.4827 51.0942C59.2387 49.9647 58.8468 48.9749 58.8468 48.9749L58.4658 48ZM56.6014 51.0942C56.6597 51.2841 56.718 51.4481 56.7709 51.6027C55.0176 52.0366 53.1478 52.6983 51.4326 53.7627L52.8726 56.0515C56.3898 53.8685 61.442 53.5512 63 53.5512C64.5566 53.5512 69.6102 53.8685 73.1275 56.0515L74.5675 53.7627C72.8522 52.6983 70.9824 52.0366 69.2292 51.6014C69.282 51.4481 69.3404 51.2841 69.3987 51.0929C70.6637 51.3478 73.08 51.9308 75.0759 53.5092C75.0651 53.5146 75.5844 54.2983 76.0509 55.4156C76.5281 56.5654 77.057 58.0963 77.5342 59.8224C78.4509 63.1322 79.1709 67.1634 79.2292 70.7119C78.3749 72.0149 76.7926 73.1905 75.118 73.9756C74.0678 74.4719 72.9567 74.8275 71.8136 75.0332L71.1356 73.8902C71.5383 73.741 71.9356 73.5783 72.28 73.4237C74.3668 72.5071 75.5004 71.5173 75.5004 71.5173L73.72 69.4834C73.72 69.4834 72.958 70.1831 71.1776 70.9668C69.4 71.7505 66.6814 72.5342 63 72.5342C59.3187 72.5342 56.6014 71.7505 54.8224 70.9668C53.0421 70.1831 52.28 69.4834 52.28 69.4834L50.4997 71.5173C50.4997 71.5173 51.6332 72.5071 53.72 73.4237C54.0644 73.5783 54.4617 73.7424 54.8644 73.8902L54.1865 75.0346C53.0427 74.8281 51.9312 74.4715 50.8807 73.9742C49.2075 73.1905 47.6237 72.0149 46.7722 70.7119C46.8292 67.1634 47.5492 63.1322 48.4671 59.8224C48.8728 58.3252 49.3677 56.8536 49.9492 55.4156C50.4156 54.2983 50.9349 53.5146 50.9241 53.5092C52.92 51.9308 55.3363 51.3478 56.6014 51.0942ZM58.2543 60.3308C57.2061 60.3308 56.2787 60.9288 55.7119 61.6868C55.1451 62.4447 54.8644 63.3763 54.8644 64.3986C54.8644 65.421 55.1451 66.3525 55.7119 67.1105C56.2787 67.8685 57.2061 68.4664 58.2543 68.4664C59.3024 68.4664 60.2298 67.8685 60.7966 67.1105C61.3634 66.3525 61.6441 65.421 61.6441 64.3986C61.6441 63.3763 61.3634 62.4447 60.7966 61.6868C60.2298 60.9288 59.3024 60.3308 58.2543 60.3308ZM67.7458 60.3308C66.6976 60.3308 65.7702 60.9288 65.2034 61.6868C64.6366 62.4447 64.3559 63.3763 64.3559 64.3986C64.3559 65.421 64.6366 66.3525 65.2034 67.1105C65.7702 67.8685 66.6976 68.4664 67.7458 68.4664C68.7939 68.4664 69.7214 67.8685 70.2881 67.1105C70.8549 66.3525 71.1356 65.421 71.1356 64.3986C71.1356 63.3763 70.8549 62.4447 70.2881 61.6868C69.7214 60.9288 68.7939 60.3308 67.7458 60.3308ZM58.2543 63.0427C58.3288 63.0427 58.4237 63.0698 58.5932 63.2976C58.7627 63.5241 58.9322 63.9214 58.9322 64.3986C58.9322 64.8759 58.7627 65.2732 58.5932 65.501C58.4237 65.7275 58.3288 65.7546 58.2543 65.7546C58.1797 65.7546 58.0848 65.7275 57.9153 65.4997C57.691 65.1766 57.5726 64.7919 57.5763 64.3986C57.5763 63.9214 57.7458 63.5241 57.9153 63.2963C58.0848 63.0698 58.1797 63.0427 58.2543 63.0427ZM67.7458 63.0427C67.8204 63.0427 67.9153 63.0698 68.0848 63.2976C68.2542 63.5241 68.4237 63.9214 68.4237 64.3986C68.4237 64.8759 68.2542 65.2732 68.0848 65.501C67.9153 65.7275 67.8204 65.7546 67.7458 65.7546C67.6712 65.7546 67.5763 65.7275 67.4068 65.4997C67.1826 65.1766 67.0641 64.7919 67.0678 64.3986C67.0678 63.9214 67.2373 63.5241 67.4068 63.2963C67.5763 63.0698 67.6712 63.0427 67.7458 63.0427Z"/>
</mask>
<path d="M58.4658 48L57.4068 48.1275C57.4068 48.1275 52.6556 48.6468 49.1858 51.4332H49.1451L49.1017 51.4739C48.3234 52.1898 47.9844 53.0698 47.4488 54.3566C46.8175 55.9048 46.28 57.4896 45.8393 59.1024C44.8332 62.7403 44.017 67.1471 44.017 71.1783V71.5173L44.1865 71.8563C45.4421 74.0597 47.6712 75.463 49.7376 76.4325C51.8027 77.402 53.5885 77.9159 54.8224 77.958L55.6278 78L56.0509 77.28L57.5343 74.6522C59.1071 75.0075 60.9187 75.2461 63 75.2461C65.0814 75.2461 66.8929 75.0075 68.4658 74.6522L69.9492 77.28L70.3736 78L71.1776 77.958C72.4115 77.9159 74.1973 77.402 76.2624 76.4325C78.3288 75.463 80.558 74.0597 81.8136 71.8563L81.9831 71.5173V71.1783C81.9831 67.1471 81.1668 62.7403 80.1607 59.1024C79.72 57.4896 79.1825 55.9048 78.5512 54.3566C78.0156 53.0685 77.6766 52.1898 76.8983 51.4753L76.8563 51.4319H76.8129C73.3458 48.6468 68.5932 48.1275 68.5932 48.1275L67.5343 48L67.1519 48.9749C67.1519 48.9749 66.76 49.9647 66.5173 51.0942C65.3516 50.9334 64.1767 50.8483 63 50.8393C62.2746 50.8393 61.0204 50.8868 59.4827 51.0942C59.2387 49.9647 58.8468 48.9749 58.8468 48.9749L58.4658 48ZM56.6014 51.0942C56.6597 51.2841 56.718 51.4481 56.7709 51.6027C55.0176 52.0366 53.1478 52.6983 51.4326 53.7627L52.8726 56.0515C56.3898 53.8685 61.442 53.5512 63 53.5512C64.5566 53.5512 69.6102 53.8685 73.1275 56.0515L74.5675 53.7627C72.8522 52.6983 70.9824 52.0366 69.2292 51.6014C69.282 51.4481 69.3404 51.2841 69.3987 51.0929C70.6637 51.3478 73.08 51.9308 75.0759 53.5092C75.0651 53.5146 75.5844 54.2983 76.0509 55.4156C76.5281 56.5654 77.057 58.0963 77.5342 59.8224C78.4509 63.1322 79.1709 67.1634 79.2292 70.7119C78.3749 72.0149 76.7926 73.1905 75.118 73.9756C74.0678 74.4719 72.9567 74.8275 71.8136 75.0332L71.1356 73.8902C71.5383 73.741 71.9356 73.5783 72.28 73.4237C74.3668 72.5071 75.5004 71.5173 75.5004 71.5173L73.72 69.4834C73.72 69.4834 72.958 70.1831 71.1776 70.9668C69.4 71.7505 66.6814 72.5342 63 72.5342C59.3187 72.5342 56.6014 71.7505 54.8224 70.9668C53.0421 70.1831 52.28 69.4834 52.28 69.4834L50.4997 71.5173C50.4997 71.5173 51.6332 72.5071 53.72 73.4237C54.0644 73.5783 54.4617 73.7424 54.8644 73.8902L54.1865 75.0346C53.0427 74.8281 51.9312 74.4715 50.8807 73.9742C49.2075 73.1905 47.6237 72.0149 46.7722 70.7119C46.8292 67.1634 47.5492 63.1322 48.4671 59.8224C48.8728 58.3252 49.3677 56.8536 49.9492 55.4156C50.4156 54.2983 50.9349 53.5146 50.9241 53.5092C52.92 51.9308 55.3363 51.3478 56.6014 51.0942ZM58.2543 60.3308C57.2061 60.3308 56.2787 60.9288 55.7119 61.6868C55.1451 62.4447 54.8644 63.3763 54.8644 64.3986C54.8644 65.421 55.1451 66.3525 55.7119 67.1105C56.2787 67.8685 57.2061 68.4664 58.2543 68.4664C59.3024 68.4664 60.2298 67.8685 60.7966 67.1105C61.3634 66.3525 61.6441 65.421 61.6441 64.3986C61.6441 63.3763 61.3634 62.4447 60.7966 61.6868C60.2298 60.9288 59.3024 60.3308 58.2543 60.3308ZM67.7458 60.3308C66.6976 60.3308 65.7702 60.9288 65.2034 61.6868C64.6366 62.4447 64.3559 63.3763 64.3559 64.3986C64.3559 65.421 64.6366 66.3525 65.2034 67.1105C65.7702 67.8685 66.6976 68.4664 67.7458 68.4664C68.7939 68.4664 69.7214 67.8685 70.2881 67.1105C70.8549 66.3525 71.1356 65.421 71.1356 64.3986C71.1356 63.3763 70.8549 62.4447 70.2881 61.6868C69.7214 60.9288 68.7939 60.3308 67.7458 60.3308ZM58.2543 63.0427C58.3288 63.0427 58.4237 63.0698 58.5932 63.2976C58.7627 63.5241 58.9322 63.9214 58.9322 64.3986C58.9322 64.8759 58.7627 65.2732 58.5932 65.501C58.4237 65.7275 58.3288 65.7546 58.2543 65.7546C58.1797 65.7546 58.0848 65.7275 57.9153 65.4997C57.691 65.1766 57.5726 64.7919 57.5763 64.3986C57.5763 63.9214 57.7458 63.5241 57.9153 63.2963C58.0848 63.0698 58.1797 63.0427 58.2543 63.0427ZM67.7458 63.0427C67.8204 63.0427 67.9153 63.0698 68.0848 63.2976C68.2542 63.5241 68.4237 63.9214 68.4237 64.3986C68.4237 64.8759 68.2542 65.2732 68.0848 65.501C67.9153 65.7275 67.8204 65.7546 67.7458 65.7546C67.6712 65.7546 67.5763 65.7275 67.4068 65.4997C67.1826 65.1766 67.0641 64.7919 67.0678 64.3986C67.0678 63.9214 67.2373 63.5241 67.4068 63.2963C67.5763 63.0698 67.6712 63.0427 67.7458 63.0427Z" fill="#B2C2CB" stroke="#2E333A" stroke-width="0.8" mask="url(#path-2-inside-1_177_3849)"/>
</g>
<defs>
<filter id="filter0_dd_177_3849" x="0.107913" y="0.107913" width="125.784" height="125.784" filterUnits="userSpaceOnUse" color-interpolation-filters="sRGB">
<feFlood flood-opacity="0" result="BackgroundImageFix"/>
<feColorMatrix in="SourceAlpha" type="matrix" values="0 0 0 0 0 0 0 0 0 0 0 0 0 0 0 0 0 0 127 0" result="hardAlpha"/>
<feOffset dx="6.22302" dy="6.22302"/>
<feGaussianBlur stdDeviation="9.33453"/>
<feColorMatrix type="matrix" values="0 0 0 0 0 0 0 0 0 0 0 0 0 0 0 0 0 0 1 0"/>
<feBlend mode="normal" in2="BackgroundImageFix" result="effect1_dropShadow_177_3849"/>
<feColorMatrix in="SourceAlpha" type="matrix" values="0 0 0 0 0 0 0 0 0 0 0 0 0 0 0 0 0 0 127 0" result="hardAlpha"/>
<feOffset dx="-6.22302" dy="-6.22302"/>
<feGaussianBlur stdDeviation="9.33453"/>
<feColorMatrix type="matrix" values="0 0 0 0 0.231373 0 0 0 0 0.266667 0 0 0 0 0.317647 0 0 0 1 0"/>
<feBlend mode="normal" in2="effect1_dropShadow_177_3849" result="effect2_dropShadow_177_3849"/>
<feBlend mode="normal" in="SourceGraphic" in2="effect2_dropShadow_177_3849" result="shape"/>
</filter>
</defs>
</svg>
